<svg xmlns="http://www.w3.org/2000/svg" width="612" height="792" viewBox="0 0 612 792"><path fill="#6BD6E6" d="M20 669c2-5 6.3-8.5 11.7-10 1-1 2-1.5 3.3-1.8 7.6-9 25.2-19 36.8-20.7h2.4c7-6 16.2-8.7 25.3-9.2 4.4-2 9.2-2.6 14-1.6-2.3-1.8-4-4.2-5-7-7.2-5-14.3-11-16.2-19.8-9-12.2-21-27-24-41.8-7-10-19.3-37.5 2.4-39.3 15.3 1 29.5 1 44 7.7.8-.6 1.8-1 2.8-1.6-13-16.8-11.5-60.5-6.5-80.2-1.6-33 4.6-66.5 2.5-99.5-2-33.7-3.8-67.5-5.6-101-1.4-23-7-66.5 6-87-.3-6.7 0-13.2 2.7-19.3-10.2 6.5-24.2-8-28-17.6-2-1.4-3-3.5-3.3-6-2.2-4.6-2-9.8.7-14.2 0-2.5.8-5 2.6-6.6 0-3.6 2-6.5 5-8.3.3-4 2.4-6.8 6-8.2 9.2-11.6 43-18.8 51-3 2.4-3.4 6-5.5 10-5.8h1.3c10.2-6.3 19.7-14 31.6-17 5.2-4 11-6.5 17.6-7.5h1.5c10-7.3 30-8.7 42.2-11.2 18-3.8 38.4-1.5 56.8-1.2 24.5.3 77.7 4.7 93.8 26.6 7.6 2.5 15 6 21.4 10.8.8-3.2 3-5.2 6.4-5.8 13.4-12.5 46.3 2 54.6 15.3 7.5 12 8.4 39-6.3 46-5.2 5.2-11.6 9.3-18.4 12.2 10 33 10.4 64 11.2 98.2 5 8.5 4.8 20.2 1.3 29.3 1.5 10.7 1.2 21.6.6 32.4 6.3 12.5 4.2 37.3 3 49.8 3 48.6 2 99.7-4.6 148-1 8.4-1.4 16.6-5 24l-1 8.5c3 .3 6 1 8.7 1.7 13.5-6.2 32-13.8 46.5-6.2 30.6-1.8 11.8 49-.8 59-5.7 13.6-14.5 26.8-24.4 37.7-1 3-3 5.8-5.3 8h2.7c20 1.5 65 15.7 69.2 26 16.5 1.2 10.2 21.3-4.7 12.5-18 6-35.7 8.5-52 20.4-4.5 4.4-10.4 7-16.6 8-4 5-9.2 8.5-15 11 2 16.5-14.7 18.7-22.6 8.3-3-1.3-6-3-8.5-5-11.6-4.6-41.3-15.6-41.2-30-9 .2-17 4.5-26.3 5.7 6.2 2.6 12 5.8 16.5 10.5 8 4.4 19 13.2 23.2 20.8 24.3 18.2-12.8 20-26.8 9-4.7-.3-9.4-1.7-13.7-4 1 3.6 2 7.2 2.7 11 6.4 6.3 6.2 17.4-2.8 21.5-7.8 3.4-15-4-22.3-6 3.4 8.3 3.3 25.4-9.6 19-8-.4-13.2-7-16-14.2-10.8-5.2-20.8-23.5-21.5-38-.6-12 6.7-20.4 12.6-26.4 3.5-3.2 8-5.8 11.8-8.6l-8.4-1.2c-20.5 4.2-45.5-3.6-65.6-7.4 8.6 9.4 23.7 19.7 26.2 33 12 23-15.8 46.6-28.6 61l.4-.3-.4.3c-10.6 9-24.4-.8-21-13.8-2.4.7-5 1-7.6.8-5 3.4-11.3 3.7-16-.6-4.6-4.3-4.8-10.8-1.7-16 1.5-2.7 3.4-4.4 6-6-.6-1.2-1-2.6-1.2-4-7.2 1.3-13.4 4.6-20.6 4.8-4 3-8.8 3.6-13.3 1.5-9 8.6-17.2-1.8-8.8-10.3.7-.7 1.2-2 2-2.4 5.6-15.3 29-30.3 44.6-34 1.4 0 2.8 0 4 .4 3.3-2.3 7-4 10.8-4.5-1-1.3-1.7-2.6-2.3-4-4 6.5-11.5 8.2-18 4-5.8-.6-11.6-2-17-3.8-2.6 1-5.3 1-7.8.2-2.7 14.3-58.4 58-66.3 35.6-.6-1.7-.7-3.4-.6-5.2-6.4-6.5-15.6-8.2-23.2-11.8-8.2-1-14.4-6.5-20-12.2-3-.4-5.4-1.8-7.3-3.8-6.3.4-12.6-1-17.8-4.7-4.6 3-9.6 3-14.2.4-2 .2-4 .2-6.2 0-6.2 4-11.2 2.5-12.8-4.7zm44.6-120.4h.2-.2zM88 116c0 .2 0 .2.3.3l-.4-.2zm395.3 5.5zM534 553.2h.2zm.4-27.5l-.4-.2.4.2zm-1-.6h-.3.3zM569 653.5zM417.5 732zm-109-20v.2-.3zm-99.7 25v.6c0-.4 0-1 .2-1.3l-.2.6zm.3-1.3zM45 651h-.2.5-.4zm32-15.6h-.3.4zM149 80v-.2zm288-1v.3-.2zM110.6 622.4v.2c0-.2 0-.3-.2-.5l.2.3zm-31.8-52.7h1c-.6 0-1.2 0-1.7-.2l.8.2zm-1.6-.4l.7.2c-.5 0-1-.2-1.3-.4l.5.2zm-1.5-.5h.3c-.2 0-.4 0-.5-.2l.2.2zm-1.2-.7zm6-38v-.2zm44.7-429.3c-3.8.6-7-1-8.8-4.2 0 .2-.3.5-.5.7 1.5 4 2.2 8.4 2 12.8v-.5c2.3 6.6 2.2 14-.2 20.5.8 2 .6 4.4-.6 6.3l1-1.2c1-11.6 2.4-23.7 7.4-34.4h-.4zM335 33.2zm.8.7l-.2-.3.2.2zm108 52.8c-1.5-3.2-4-6-6.7-8.2 1.8 1.5 3 3.4 4 5.5 1.2 1 2.2 2 3.2 3.3l-.3-.5zm34 440.6zm28.4 81v-.2zM496 623l.2-.2-.4.4h.2zm-8.3 73.6h.2-.3zM361.2 747v-.2zm-.5-.7l.2.2c-.3 0-.4-.3-.5-.5l.2.3zM264.4 678zm-49.7 51.3l-.4.2 1-.4-.6.3zm1.2-.5zm-6.7-53.5l-.2-.2.3.3zm-1-3.8v-.2.2zm0-1.2v-.6.6zM185 683.6zm-121-8.3H64zm-1 0h.5l-1.2.2h.6z"/><path fill="#F6D2A2" d="M297.6 169.6h-7l-.8.2H280.4l-.4.2h-2.3l-.4.2h-.9l-.5.2h-1l-.4.2h-.5l-.6.2h-.5l-.6.2h-.5l-.6.3h-.5l-.6.3h-.5l-.6.3h-.6l-.5.3-.5.2-.5.3-.5.2-.6.3-.5.3-.5.2-.3.2-.3.2h-.3l-.3.3v.2h-.4v.2h-1.7l-.7.3h-.5l-.5.3-.6.2-.5.2-.5.2-.5.3-.5.3-.4.3-.5.4-.4.3-.5.4-.5.5-1.8 1.6-.4.5-.4.4-.5.4-.3.4-.3.5-.5.4-.2.5-.3.5-.3.5-.2.5-.2.5-.2.6v.5l-.2.6v.4l-.2.6v1.1l-.2.7v1l-.3.5v1.2l-.2.5v4.5l.2.5v.5l.3.5v.4l.3.6.2.5.2.5.2.4.3.4.2.4.3.4.3.4.3.4.3.4.3.4.4.4.4.4.5.3.4.3.3.3.4.3h.5l.4.4.4.2.5.2.4.2.3.2h.4l.5.3h.4l.5.2h.5l.5.2h5.1l.2-.2h.5l.6-.2h.5l.6-.2.5-.2h.4l.5-.3.4-.2.4-.2.5-.2h.5l.5-.3.5-.2.5-.2.5-.2.5-.3h.5l.3-.3h.4l.3-.3.3-.2h.2l.3-.3v-.2h.9l.3-.2h.4l.6-.2.4-.2H283l1-.2h3.4l.2-.2h3.8l1.2-.3H294l.6.2h.5l.6.2H296.8l.3.2H298.6l.6.2h2.7v.2l.3.2.4.3.3.3.3.2.3.2.3.2h.3l.2.2.4.2.3.2.2.2h.3l.3.3.3.2.4.2h.3l.4.3h.4l.3.2h.3l.3.2h.3l.4.2h.3l.3.2h.3l.3.3h.8l.4.2h.3l.3.2h.3l.3.2h.6l.4.2h.7l.4.2h1.6l.3.2h3.3l.5-.2 3.3-.5h.6l.6-.3h.5l.5-.3.6-.3.5-.2.5-.2.5-.3.5-.3.4-.3.5-.3.4-.2.6-.4.4-.3.4-.3.4-.4.3-.5.5-.4.3-.4.3-.5.4-.5.3-.5.2-.5.2-.5.2-.5.2-.5v-.6l.3-.6v-1.2l.2-.5V193.5l-.2-.5v-.7l-.2-.5-.2-.6v-.5l-.3-.5-.3-.5-.2-.5-.3-.5-.2-.5-.3-.5-.4-.4-.3-.5-.4-.4-.4-.4-.4-.4-.3-.2-.5-.4-.3-.2v-.2l-.2-.5-.2-.4v-.3l-.2-.3v-.3l-.3-.3v-.3l-.2-.2v-.3l-.2-.3-.2-.4-.2-.3-.2-.3-.2-.4-.2-.4-.2-.3-.3-.3-.3-.4-.3-.4-.3-.6-.3-.4-.3-.4-.5-.5-.4-.3-.6-.5-.5-.4-.6-.5-.6-.4-.7-.5-.4-.3-.4-.2-.6-.2-.4-.2h-.4l-.5-.3-.5-.2h-.6l-.7-.3h-.6l-.6-.3h-.5l-.6-.3H313.6l-.6-.2h-.5l-.5-.2h-.6l-.6-.2h-.6l-.6-.2h-1l-.6-.2H306l-.5-.2H301.8l-.5-.2h-3.7zm-6 32h-.2zm-7-2.6l-.3.3.6-.7.2-.3-.6.7zm-3.7-.5h-.2zm5-1.5l-.2.3.4-.5v.2zm-25-20.2v.2l-.3.3-.3.2-.2.2-.2.2-.3.2-.2.2-.2.3-.2.2v.2l-.3.2-.2.3-.2.3-.2.2v.3l-.3.3-.2.2-.3.3-.3.2-.5.3-.4.3-.4.5-.4.3-.3.3-.3.3-.2.2-.3.2-.4.4-.6.5-.3.3-.4.3-.3.5-.3.3-.4.4-.2.3v-.8l.3-.5.2-.6v-.7l.4-.7.4-.7.4-.7.5-.8.5-.6.6-.6.6-.6.7-.5.7-.5.6-.4.7-.3.6-.3.6-.2.5-.2h.5l.5-.2h.7-.2zm-8 8.3zm4.8 0v-.2zm5.4-2l-.2.4.2-.4v-.2zm.5-.7z"/><path fill="#FFF" d="M297 202h-1.2l-.5.2-.5.2h-.4l-.4.3-.4.2-.4.2h-.2l-.3.4-.4.2-.4.5-.6.5-.3.5-.2.6-.2.3-.2.5V207.4h-.2l-.3-.7-.4-.8-.4-.8-.5-.6-.6-.6-.5-.5-.7-.4-.7-.2-.7-.2-.8-.2H282l-.7.4-.7.3-.7.5-.7.5-.6.6-.5.6-.4.7-.3.5h-1.9l-.4.2h-.7l-.3.2h-.2l-.3.2h-.3l-.3.2-.2.2h-.3l-.2.3h-.7l-.4.2h-.6l-.3.2h-.5l-.3.2h-.4l-.3.2h-.3l-.2.2h-.4l-.2.2-.3.2-.4.2-.2.2-.3.2-.4.3-.3.3-.6.6-.3.3-.3.4-.3.5-.3.6v.4l-.3.4v1.1l-.2.2V218.8l.2.5v1l.2.4v.3l.2.3v2.3l.2.3v.8l.2.4v.6l.2.3v.3l.2.3v.2l.3.2v.2l.2.3.2.3v.3l.2.3.2.4V232.5l.2.3v.9l.2.5v.2l.2.3v.3l.3.3v.4l.3.3.2.4.2.4.2.2.2.3.2.2.2.3.3.3.3.2.3.3.2.3.3.2.4.3.3.4.3.2h.2l.2.3h.3l.2.3.3.2h.2l.2.2.2.2h.4l.2.2h.2l.3.2h.4l.2.2h.3l.2.2h.6l.4.2h3.3l.4-.2.3-.2h.4l.4-.3h.4v-.2h1.5l.5-.2.6-.2.8-.3.7-.4.7-.6.4-.4.4-.5.3-.5.2-.3.2-.2.5-.2.4-.3.3-.3.2-.3.3-.3.3-.2.2-.3.2-.3.2-.3v-.3l.3-.3v.2l.2.3v.4l.2.3v.2l.3.2v.3l.3.3.3.4.3.3.3.3.4.3.3.5.4.3.5.2.4.3h.3v.2l.4.2h.4v.4l.3.3.3.2.3.3.3.3.2.4h.2l.2.3.3.2.5.3.3.2.4.2h.4l.4.2H300l.3.2H304l.4-.2h.7l.3-.2h.7l.2-.2h.3l.2-.2h.3l.3-.2h.3l.4-.3.3-.2.5-.3.2-.2.5-.4.2-.3.5-.5.5-.7.3-.6.2-.4.2-.5v-.3l.2-.3.2-.3h.2v-.3l.2-.2v-.3l.2-.2v-.2l.3-.4v-.3l.2-.3v-.7l.2-.3v-.7l.2-.3v-.8l.2-.3v-10.1l-.2-.8v-2.6l-.2-.8v-4.1l-.3-.7-.3-.8-.3-.7-.3-.6-.4-.7-.5-.6-.4-.5-.7-.4-.7-.4-6-2.8v-.2l-.3-.4-.3-.3-.3-.4-.5-.4-.3-.4-.5-.3-.6-.4-.4-.3-.4-.2-.5-.2h-.4l-.6-.2h-1.6zm-16.6 39h-.3.4zm28.7-1v-.2zm-22.4-2.5zm4.8-26.5v-.4.4zm.2-5.7zM222.6 69h-.3l-.4.2H221l-.2-.2h-.7v-.2h-1l-.3-.2H217l-.4-.2H212l-.2.2h-1.2l-.3.2h-1l-.6.2h-.6l-.5.2h-.6l-.7.2h-.5l-.6.3h-.5l-.6.2h-.4l-.5.2-1 .2-1 .3-.4-.3-.6-.2h-.6l-.6-.3H196l-.4.3h-.3l-.3.2-.2.2h-.3l-.3.3h-.2l-.3.2-.3.2-.4.2-.4.2h-.3l-.3.3-.4.2-.3.2-.3.2-.4.2h-.3l-.3.3-.3.3-.4.2-.3.2h-.3l-.3.3-.3.2v.2l-.4.2-.6.3-.6.3-.5.4-.7.4-.6.5-.6.4-.4.3-.6.4-1 .8-1.2.8-1 .8-.7.5-.4.4-.5.3-.4.3-.6.4-.5.3-.4.4-.4.3-.5.3-.3.3h-.3l-.2.3h-.4l-.2.2h-.2l-.2.2-.2.2h-.2l-.3.2h-.2l-.6.5-.6.4-.5.5-.4.6-.3.5-.4.6-.2.5v.4l-.2.3V90l-.2.5v.7l-.3.6v.5l-.3.5v.6l-.3.5v.4l-.4.7v.3l-.3.2-.2.3-.2.2-.2.2-.2.3v.2l-.3.2-.2.2-.2.2v.3l-.2.2h-.2v.4l-.2.2v.2l-.2.3v.3l-.2.2v.2l-.2.3v.4l-.2.2-.2.5v.5l-.2.4v.3l-.2.4v.3l-.2.4v.3l-.2.4v.7l-.3.6v.3l-.2.3v.7h-.2v.3l-.5.3-.5.5-.2.2-.3.4-.2.3-.2.3-.2.4-.2.3v.3l-.2.3v.2l-.2.2v.2l-.2.2v.2l-.2.3v.8l-.2.3V113.6l-.2.2v5.6l-.2.5V125.7l.2.4v.5l.2.4v.2l.2.3v.5h.2v.5l.2.3v.5l.2.4v.4l.2.5v.4l.2.3v.5l.2.4.2 1 .2 1v.4l.2.5v.6l.3.5v.6l.2.6.2.5v.8l.2.3v.3l.2.4v.2l.2.3v.2l.2.3v.3l.2.3v.3l.3.3v.3l.2.2.2.3v.3l.2.2v.3l.3.3.2.4.3.3.2.3.2.2.2.3.2.3.3.3.2.3h.2l.2.3.2.3v.4l.3.3.2.4.2.4v.4l.3.4v.3l.3.4v.4l.3.3v.4l.3.3v.3l.3.4v.3l.2.2.2.3v.2l.2.5.2.5v.4l.3.3.3.3v.4l.3.2.2.3v.2l.3.2.4.2.3.4.2.2.2.3.2.3.2.2h.2l.2.3h.2l.3.4.3.3.2.2.2.3.2.2.2.2.2.2h.2l.2.3h.2l.2.3h.2l.2.3h.2v.3h.5l.2.3.3.2h.2l.2.2.4.3.5.2.4.2h.2l.4.3.4.2h.3l.4.2h.4l.4.3h.4l.3.2.5.2h.5v.4l.6.6.6.6.6.5.6.6.8.3.7.2.7.2h1.5l.3.2h1l.3.2h1.3l.3.2h.5l.2.2h.3l.3.2h.6l.2.2h.3l.4.2h.3l.3.2h.2l.3.2h.3l.3.2h.3l.3.2h.3l.2.2h.2l.3.2.2.2h.2l.3.2h.3l.4.3h.4l.3.2h.8l.3.2h1l.4.2h1.3l.3.2h.5l.2.2h.8l.2.2H213.7l.5-.2H218.5l.4-.2h1.4l.3-.2h.9l.3-.2h.7l.4-.2H223.5l.3-.2h.6l.3-.2h.3l.3-.2h.3l.2-.2h.4l.3-.2h.2l.3-.2h.3l.3-.3h.4l.3-.2h.3l.3-.2h.3l.3-.2h.2l.3-.2.6-.3.7-.2.5-.2.6-.2.5-.3.6-.3.5-.2.5-.3 1-.5h.2v-.2H237v-.2h.4l.2-.2h.5v-.2h.7l.7-.3.7-.3h.4l.4-.2h.4l.4-.2h.4l.4-.3h.5v-.2h.3l.3-.2h.2l.2-.2h.3l.2-.2h.2l.3-.2h.2l.3-.2.2-.2h.2l.2-.2.2-.2h.3l.2-.3.2-.2.3-.2.2-.2.3-.2.3-.2.2-.2.3-.2.2-.2h.2l.5-.5.4-.4.8-.6.4-.3.3-.3.3-.2h.2v-.2l.3-.2.2-.2h.2v-.2h.3v-.2h.4v-.2l.4-.2h.2l.2-.3h.2l.2-.3.3-.3.2-.4.3-.2.2-.3.3-.2.2-.3.3-.2.2-.3.2-.3v-.3l.4-.3h.2l.2-.4.2-.3.2-.3.2-.3.2-.3.2-.2.2-.3.2-.4.2-.2v-.3l.3-.2v-.2l.3-.3v-.2h.2v-.2l.5-.3.2-.2v-.2h.3l.3-.4v-.2l.3-.2v-.2l.3-.2.2-.3v-.2l.3-.3v-.2l.3-.3.2-.2v-.2h.2v-.5l.3-.4v-.2l.2-.4v-.8l.2-.3v-.9l.3-.8v-.7l.3-.5v-.4l.3-.4.2-.4v-.3l.3-.8.3-.7.2-.7.2-.6v-.3l.2-.4v-.3l.2-.3v-.2l.2-.3v-.2l.2-.2.2-.2v-.2l.5-.5.4-.5h.2l.3-.5.3-.6v-.3l.3-.5.2-.5v-.5l.2-.5v-2.2l-.2-.5V114.7l-.2-.4V113l-.2-.3v-.8l-.2-.2v-.5l-.2-.2v-.5l-.2-.3v-.2l-.2-.3v-.2l-.2-.3v-.2l-.3-.3V107.4l-.2-.3v-1h-.2v-2.4l-.2-.5V102l-.2-.2V101l-.2-.5v-.6l-.2-.5v-.3l-.2-.4v-.4l-.2-.2V98l-.3-.5-.2-.4-.3-.4-.2-.3-.2-.4-.3-.4-.3-.3-.2-.3-.2-.2-.3-.2-.2-.2-.2-.2V94l-.4-.6-.3-.6-.2-.6-.3-.6-.3-.6-.3-.6-.4-.5-.3-.7-.4-.6-.4-.6-.3-.4-.4-.6-.4-.6-.2-.3-.2-.2-.3-.4-.4-.4-.4-.5-.5-.4-.4-.2-.5-.3-.4-.2-.5-.3h-.3v-.2h-.2l-.2-.4V82l-.6-.7-.2-.5-.3-.4v-.2l-.2-.3-.2-.3-.2-.2-.2-.3-.2-.3-.2-.4-.3-.3-.2-.3-.2-.2-.3-.2-.3-.3-.4-.2-.4-.2-.4-.2-.6-.2-.3-.3h-.2l-.3-.2-.3-.2h-.3l-.2-.2h-.3l-.2-.2-.3-.2h-.2l-.3-.2h-.3l-.5-.2h-.2l-1-.4-1-.2-.8-.2-1-.3-.8-.2-1-.3-.8-.3-1-.2-.8-.3-1-.3-.8-.3-1-.3-.8-.3-1-.2-.7-.3-1-.3h-.6l-.3-.2h-.5l-.2-.2h-.8l-.2-.2h-1l-.4-.2h-1.7l-.7-.2h-2zm-34.2 98.3H189h-.8.2zM352 62.3h-2.7l-.2.2h-.5l-.3.2h-.4l-.2.2h-.5l-.7.4-.6.3-.7.3-.7.2-.7.3-.8.3-.6.2-.8.3-.7.3-.6.2-.7.3-.7.3-.8.3-.7.2-.7.3-.8.3-.7.3-.8.2-1.5.5-1.5.5-1.5.5-1.5.5-1.5.5-1.5.5-.8.2-.8.3-.5.2h-.4l-.2.3-.3.2h-.3l-.3.3-.3.2h-.2l-.2.2-.2.2-.4.4-.2.2h-.2l-.4.5v.2l-.3.2-.4.3-.2.3-.4.3-.3.3-.3.3-.3.2-.3.3-.2.3-.3.3-.3.4-.3.2-.4.3-.3.2-.5.6-.5.5-.5.5-.2.2-.2.3-.3.2v.2l-.3.2h-.2l-.2.3-.2.2v.2h-.3v.3l-.5.3h-.2l-.5.7-.4.5v.2l-.3.4-.3.7-.2.4v.5l-.2.3v.6l-.2.3v.5l-.2.5v.2l-.3.3-.2.3v.2h-.3v.3l-.3.3-.2.3v.2l-.3.4-.3.2-.2.3-.2.3-.2.3v.4l-.2.3-.2.3v.3l-.3.3v.3l-.2.2v.3l-.2.3-.2.5-.2.5-.2.5-.2.4-.2.4v.5l-.3.4v.2h-.2v.4l-.3.4-.2.5v.5l-.2.4V101.8l-.3.5-.2.4v.6l-.2.2v.3l-.2.4v.3l-.2.5-.3.4v.3l-.3.3-.3.4-.2.2-.3.6-.3.6v.3l-.3.5v1.1l-.2.3V118.2l.2.3v.8l.2.2v.5l.2.3v.4l.3.2.3.5.3.5.2.3.4.5.5.6.2.2v3.5l.2.2v.7l.2.4v.3l.2.4v.3l.2.4v.4l.2.3v.2l.2.2v.2l.3.2v.3h.2v.2l.2.2v.3l.3.3.2.3v.8l.2.5v.3l.2.4v.4l.2.4.2.5.2.4.3.3v.3l.3.3h.2l.2.3v.2l.4.2.2.2v.4l.2.4v.6l.2.3v.3l.2.4v.3l.2.3v.3l.2.4.2.3v.4l.3.3v.2h.2v.4l.2.2v.2l.3.2.2.3.2.2v.3l.3.2.3.3.3.3.2.2.3.2.2.2.3.2h.2l.2.2h.2l.2.3h.3l.4.2.5.6v.3l.3.4.2.3v.2h.3v.3l.3.2.2.2.2.2.2.2.2.2.2.2.3.3h.3l.3.4.3.3.4.2h.3l.2.2h.2l.2.2.5.5.7.3.7.4h.3l.4.3h.5l.3.2.2.2.3.3h.2l.2.3h.2v.2l.2.2.2.2.2.3.2.3.4.4.2.2.5.3.6.5.7.4h.2l.4.2h.2v.2h.4v.2h.3l.2.2.5.2.3.2h.4l.3.3.4.2 1 .4.4.2.4.2.5.3.4.3h.3l.2.2h.3l.2.2h.3l.2.2H335l.2.2h1.4l.4.2h2.4v-.2h.5l.2.2h.6l.3.2H342l.2.2h1.7l.3.2H345.2l.2.2h.7l.5.2H350.5l.3.2h.3l.3.2h.3l.3.2h.4l.3.2h.7l.2.2h.8l.3.2h1.7l.5.2H366.7l.4-.2H368.2l.2-.2h.5l.3-.2h.5l.3-.2h.4l.3-.2.3-.2h.3l.3-.3.3-.2h.3l.3-.3.4-.3.4-.4.4-.4.4-.4.2-.4H377.7l.4.2h1.5l.3-.2h.4l.6-.2h.3l.4-.3.7-.3h.3l.3-.3.2-.2h.2l.2-.2h.3v-.2h.4l.3-.2.3-.2h.3l.2-.2h.3l.4-.3h.2l.7-.3.7-.3.8-.3h.4l.3-.2.4-.2.5-.2.4-.2.5-.2.5-.2h.3l.2-.2h.3l.2-.2.2-.2h.3l.2-.2.3-.2h.2l.2-.3.3-.2h.2l.2-.3h.2v-.2l.3-.2h.2v-.2l.3-.2.3-.3.4-.3.3-.3.3-.3.2-.2.3-.2.2-.3.2-.3v-.2l.3-.2.2-.3.4-.4.2-.5.3-.4h.2v-.3h.2v-.3h.2v-.3h.2l.2-.3h.2v-.2h.2v-.2l.4-.2h.3l.3-.3.4-.3.2-.2.2-.2h.2l.3-.3.2-.3.3-.2.2-.2.3-.3.2-.3.3-.3.3-.3.2-.2.2-.2v-.2l.2-.2.2-.2v-.3l.2-.2v-.2l.2-.3v-.2l.3-.6.2-.4v-.5l.3-.5.4-1v-.2h.2l.3-.2.3-.3.4-.5.2-.2.2-.4.2-.3.2-.2v-.3l.3-.3v-.4l.2-.3v-.3l.2-.3v-.4l.2-.3v-.4l.2-.5.2-.3.3-.4.3-.5.3-.4v-.4l.3-.3.2-.2.2-.2v-.3l.3-.3.2-.3.2-.4.2-.3.2-.3.2-.4v-.4l.3-.3v-.3l.2-.2v-.2l.2-.2v-.3l.2-.4v-.6l.2-.3v-.3l.2-.3v-.3l.2-.3v-.5l.2-.3v-.7l.2-.4v-1l.2-.3v-1.4l.2-.3v-2.4l.2-.7V106.6l-.2-.3V105.2l-.2-.2V104l-.2-.3v-.3l-.2-.3v-.3l-.2-.3v-.5l-.2-.3v-.2l-.2-.3v-.2l-.3-.3-.2-.2v-.3l-.2-.2v-.3l-.2-.2V99l-.3-.4-.2-.4-.2-.4-.2-.4-.2-.4-.2-.4-.5-.7-.3-.7-.2-.4-.2-.4-.2-.3-.2-.3v-.5l-.2-.3V92l-.2-.2v-.6l-.2-.4V90l-.3-.3v-.4l-.2-.2-.2-.4v-.4l-.3-.3v-.3l-.3-.2v-.3l-.3-.2-.4-.7-.6-.7-.5-.7-.6-.8-.6-.7-.5-.7-1.2-1.3-1-1.3-.5-.7-.5-.6-.5-.7-.5-.7-.5-.6-.6-.8-.3-.4-.4-.3-.3-.4h-.3l-.3-.4-.2-.2h-.2l-.3-.3h-.2l-.2-.2-.3-.3-.2-.3-.2-.2v-.2l-.3-.2-.2-.2h-.2V72h-.3l-.2-.3h-.2l-.2-.3-.2-.2h-.2l-.2-.3-.2-.2-.2-.2h-.2l-.2-.3h-.2l-.2-.3h-.3l-.2-.3-.3-.2-.2-.2h-.2l-.2-.3h-.2l-.2-.2h-.2l-.2-.3h-.3l-.3-.2h-.2l-.2-.2h-.3l-.2-.2h-.2l-.3-.2h-.2v-.2h-.4l-.2-.2h-.2l-.3-.2h-.3l-.3-.2h-.5l-.3-.2h-.3l-.3-.2h-.5l-.3-.2h-3l-.8-.4-.7-.3-.7-.2-.8-.3-.7-.2h-.4l-.5-.3h-.4l-.3-.2h-.4l-.3-.2h-.4l-.4-.2h-.4l-.4-.2h-.4l-.4-.2h-.4l-.4-.2h-.4l-.4-.2h-.8l-.4-.2h-.4l-.4-.2h-.8l-.4-.2h-.9l-.5-.2H366l-.4-.2H357.3l-.5.2h-4.5zM179.6 142l.3.2.3.3.4.3.4.3.3.2h.3l.2.3h.2l.2.2.2.2h.5v.2l.4.2h.2l.3.2.4.2.3.2h.2l.2.2h.3l2 .8 1 .3 1 .4 1 .3.5.2.2.2.7.4.6.4.7.2H191l-.5-.2h-1.1l-.5-.2H187.6l-.3-.2H186.7l-.3-.2h-1l-.3-.2h-.4l-.2-.2h-.8v-.2h-.4l-.8-.6-.4-.2v-.2l-.6-.4-.6-.4-.2-.3v-.4l-.2-.2v-.2l-.2-.3v-.3l-.3-.3-.2-.2v-.3l-.2-.3v-.5l-.2-.2v-.2l.2.2zm4 5h.2-.2zM328 123h.7l.5.2h.8l.2.2.4.2.4.2h.3l.2.2h.3l.2.3.3.3.2.2.2.2.2.3v.2l.3.2v.2l.3.2.2.2.2.2v.3h.3l.2.4v.2l.3.3.3.3-.3.6-.3.6-.3.7v.8l-.2.8v2.6l.2.2-.2.2v.3l-.3.4v.2l-.2.3v.2l-.3.4v.3l-.2.3v.4l-.2.3v1.2H330.7l-.5.2-.6.2-.5.2h-.3l-.7.5-.4.2-.5.3-.5.5-.4.4-.4.5h-.3l-.3-.3-.2-.2h-.3v-.3l-.4-.4v-.2l-.3-.3-.2-.3-.2-.2v-.2l-.3-.3-.2-.3-.3-.3-.3-.4-.4-.3-.2-.2h-.3l-.2-.3-.2-.2-.3-.2-.2-.2h-.4v-.2l-.2-.5v-.7l-.2-.4v-.4l-.2-.2v-.3l-.2-.5v-.5l-.3-.4-.2-.5-.2-.3v-.3l-.3-.4-.2-.2v-.3h-.2l.5.2.8.2h2.9l.5-.3.8-.2.7-.4.5-.3.5-.4.4-.4.2-.3v-.2l.5-.6.3-.6v-.2l.2-.5.2-.4v-.4l.2-.4V124h.2v-1h.2zm-24 4.4zm0-25.4l.4-.3-.4.3zm-134.5-8.8zM325 88.8l-.2.3V89zM193.5 71.3z"/><path fill="#222" d="M356.2 768.6c2.5-1.4 3.7-5 3.7-11 0-9.5 1-10.3 7.6-5.3 12.5 9.5 22.7-.4 18.3-17.7-1.7-6.3-1.6-6.4 5.6-4.8 20 4.5 25.8 5.2 31.6 4 5.6-1 6.3-2 5-7.5-2-11-12-24-24.7-32.4-11.5-7.7-14-12-6.6-12 1.7 0 8 3.3 13.7 7.5 14.4 10.3 57 34.8 60.3 34.8 1.6 0 2.8-2 2.8-4.7s4.4-9 9.8-14.5c9-9 10.7-9.7 21-9.7 10 0 11-.5 10.2-4.2-3-11.3 23.6-23 53.4-23.4 9.5 0 17.3-1 17.3-1.7 0-3-14.6-16.2-25.7-23.2-11.2-7-22.6-11.6-46-18l-12.8-3.4 11.4-15c11.3-15 25.6-42.7 30.7-60 5-16.2-1.3-27-17.6-30.6-5-1-32 3-44.5 6.6-5.3 1.5-5.4 1.3-3.8-8 1-5.2 1.8-12.6 2-16.5.4-4 3.4-49.7 3.8-66.4.7-28.7 0-40.2-.5-79.7-.5-26-1.4-49-2.4-90-1.7-68.7-5-88.3-11.7-119.5-1.3-6 0-5.2 7.5-9.2 20-10.7 26.5-38.8 13.8-59.2-12-19-36.4-25-57-15.7l-8.7 4-12.7-8.4c-27.8-18.7-74-29.7-126-27.4-49 2-87.6 14-117.5 33-14 9-14.6 8.5-21.2 5-8.6-4.3-28.5-4-37.3.5C99.3 70.5 88 83 85 91.8c-1.4 4.3-3.7 13-3 19.2 1 10 2.5 13.4 12 22 5.7 5.2 13.2 8.4 15 8.4 2 0 3 1.4 2 4-6.5 21.8-9.3 70.7-4 131.3 3.6 43.2 5.2 78.3.4 140.5-2.7 34.2-3.6 79.2.3 92.7 1.2 4 1 7 .7 7.4-.3.3-4.5-.3-12.8-2.2-25.5-5.8-39.4.2-39.4 17 0 11.8 23 57.4 37.8 74.8 6.2 7.3 10.5 14 9.6 15-1 .8-8.2 3-16.2 5-30 7.7-64.6 29-73.2 45-2 4-1.2 4.3 19.3 4.4 11.8 0 25.7 1.2 30.7 2.8 11.2 3.3 21.5 12.3 19.6 17-1 3 .3 3.3 8.4 2.3 13-1.5 25.7 5.7 32.7 18.5l5 9.3 19.5-13.5c10.7-7.4 25.2-18.4 32-24.5 11.4-9.6 13.5-10.6 18.6-8.7 3.2 1.2 5.8 3 5.8 4s-5.2 4.7-11.5 8.4c-13 7.6-25.7 22-28.7 32.2-1.8 6.4-1.4 7.3 4 9.3 5.4 2 13.4 1 33.7-4 5.2-1.3 5.3-1 3.8 8.8-2.2 15.6 5.2 21 19 14 6.6-3.5 6.6-3.5 6.6 3 0 3.6 1.8 8.7 4 11.3 3.7 4.7 4 4.8 12.6 1.2 13.2-5.5 33.3-26.8 37.8-40 7.2-21.2 4-33-12.4-46.7-10.5-8.7-9.4-9.4 9.4-5.8 6.4 1.2 16 2.4 21.4 2.6 8.6.3 20 4 12.8 4-4.8 0-14 19-14 28.2 0 25.4 37 67 52 58.6zM336.5 756c-12-9-24.8-28-27-40-2-11 .7-18.7 9.8-26.7l18-15.8c8.2-7.2 7.4-10.8 8.4-19.6 1-8.5.5-13-4.2-22.4-6.5-13.2-29.4-41.3-34.2-41.3-6 0-1.5 5 12 19.4 20.4 21.8 26 36.8 20.4 50-4.3 10.4-6.7 14.6-26 14.5-17.8 0-56.4-8.7-59.2-13-2.5-4-3.5-11.5-.4-21.7 2-5.8 7.5-17.7 18.5-29.3 13-14 18.3-16.2 16-18.3-2-2.2-5.7.4-16.7 12.4-17 18.5-25.8 34.8-25.8 48.3 0 10.3 0 10.3 30 37.6 7.2 6.7 8 8.5 8 19 0 12.2-5.6 27.4-12 32.6-.8.6-5.6 6.8-11 11.3-7.5 6.2-16.4 11.2-19 11.2-3.3 0-3.5-9.5-.5-20 3.2-11-1-14.5-7-6-5 6.8-16.5 13.5-19.8 11.5-3.6-2.2-2.5-13 2.3-22.3 2.4-4.8 3.6-9.6 2.6-10.6s-6.6 1-12.3 4c-10.5 6-37.2 10.5-37.2 6.4 0-3.5 8-15.2 15.5-22.3 9.2-9 28.6-18.3 41.5-20 6.3-1 10-2.6 10-4.5 0-1.7-1-2.6-2-3-4.6-2-9.4-7.4-14-14.5-20-29.3-27-57.7-22.5-71.8 1.5-4.5 4-8 7-9.4 5.8-2.6 9-7 4-7-5.8 0-14.7 9-17.3 17.5-2.4 8.2-1 21.4 3.7 35 2.5 7-27-19.3-41.7-38.7-13.7-18.2-31.7-49-40.6-74.7-5.4-15.7-3-16.2 1.6-162.7 1-31-1.6-55.5-4.2-85.6-4.3-52-2.6-73 1.6-101 6-40.2 15.5-63.8 38.2-86.5 49.4-49.5 177.3-62 247.5-25 26.7 14 46.5 31.3 56.5 60.4C467.6 151 472.6 180 475.3 277c5 182 .3 206-4.4 232.6-9.7 55-41.6 107.2-73.2 132l-13.5 10.8 9-18.3c4-9 6.4-17.2 7-29 .8-18-1.8-17.6-8.5-24.3-6.8-6.8-8.2-7.8-10.6-4-.7 1.3 1 3.5 3.8 5 8 4.2 11.4 9.3 11.4 20.3.2 18.8-18 57-33 70.8-8.2 7.8-7.2 10.6 4.8 12.4 13.3 2 29.5 10 41 20.6 8 7.2 15.5 17.8 15.5 22 0 3.8-27-.7-37.7-6.2-6.2-3.3-12-5-12.6-4-.7 1.2 1 6.2 3.4 11.3 5.4 10.4 5.2 20.6-.5 21.7-2 .4-8.2-3.4-13.7-8.5-11-10-14-9-10.5 4 5.8 20.5 1.2 23.3-16.5 10zm-28-512.5c5-2.5 6.8-4.4 7.4-17.5.6-14.2-.4-14.7 5-13.7 6.3 1.2 18.8-10 18.8-17 0-5.4-9.3-16.8-17.8-22-3.6-2-6.8-6.2-7.5-9.6-3.3-16.2-43.3-15.3-47.5 1-.7 3-3.2 6-5.5 7-7.3 2.2-15.5 14-15.5 22.3 0 8 6.3 16.6 12 16.6 2 0 2 3.8 2.8 12.3 1.6 18.4 13 26.3 24.4 18 3.7-2.7 5-2.6 9.6 1 6.4 5 6.5 5 13.8 1.5zm-14.4-6c-3-3.5-3.7-7-3-17.8.6-7.4 1.8-14 2.6-15 .8-.8 4.8 2 9.4 3.7 8.3 3 9 1.5 9.6 14.2.4 7.6-2.4 14.3-4 16-3.6 4.6-9.8 4-14.5-1zm-24.4 0c-2.2-2.4-3.2-9-4-14.5-1-9.8-2-10.2 5.3-13.2 18.6-7.7 17.8-8.2 16.6 9.8-1 12-2.2 16.8-5.2 19-5.5 4.3-8.2 4-12.8-1zm38.2-32.5c-10.3-4.3-19.4-5.8-32.6-1.3-13 4.4-21 2.3-24-5.4-2.5-7-.5-11 5.7-17.8 5.2-5.7 8.4-6.8 14.6-2.2 6.6 5 27.5 4.3 36.6-1.3 8-5 8.4-5 21 6.6 7 6.3 8 14.6 2.5 20.7-4.5 5-13.2 5.2-24 .7zm-81.3-32.4c21.3-5.4 39.6-21.2 44.2-38.4 5.5-20.4-2.6-46.7-17.8-57.5-35.6-25.3-89.3-5.8-97 35-2.2 11.2 2.3 31 9.3 40.7 12.5 17.2 39.6 25.6 61.2 20.2zm-39.8-7.5c-25.7-12-32.2-41.6-19-68C183 66 226.4 62 251 81.3c5.3 4 8 7.5 11.3 14 6.7 12.8 7.3 33.2 1.7 44-13.8 26.3-49 38.8-77.3 25.7zm16-15.7c11.2-11.3 3.8-30.3-12-30.3-4.8 0-8.3 1.8-11.5 6-5.5 7-5.8 12-1.4 20.7 5.5 10.6 16.2 12.2 24.8 3.6zm-7.3-7c-2-4.8 3-9.4 6.2-6 3 3 1 9.5-2.5 9.5-1.2 0-3-1.5-3.6-3.5zm178 24c29.4-9.8 47-31.2 44-58.3-2-19.4-14.7-36.2-31.8-45.2-12.4-6.5-40.2-5-54.7 1.6-21 9.4-34.8 31.3-34.7 52.2 0 17 13 38 30 46.7 9.7 5 37.2 6.2 47 3zm-44-7.3c-17.7-7.4-28.4-24.8-28.3-43.6.4-30 25.5-52.2 59.3-52.2 27.6 0 45 14 51 41.5 9.2 41-39.3 72-81.8 54.3zm14-14.2c5.8-6 7-14.2 2.8-22-3.5-6.6-6.2-8.2-14.4-8.2s-13.7 5.3-15.7 15c-1 6 0 8.3 5.5 14 8.3 8 14.5 8.5 21.8 1.2zm-7.3-7c-1.7-4.8 3-9.3 6.4-6 2.8 3 1 9.6-2.6 9.6-1.3 0-3-1.6-3.7-3.5zm87 553.8c-6.4-4-11.7-8.2-11.7-9.2s6.2-4.2 13.8-7.2c15.4-6 55.8-32 64.3-41 6.7-7.3 13.4-7.5 34.6-1.2 18.3 5.4 39 15.8 45.8 23l4.8 5.2-17.6 1.5c-20.8 1.8-38 9-45.3 19-3 3.8-8 7.3-12 8-10.7 2.3-22.5 11-26.8 20l-4 8.2-17-9.5c-9.5-5.2-22.5-12.7-29-17zm-296.5 19c-6.3-10-14.5-15.4-25.5-17-5.8-.7-11.6-3.3-15-6.6-9-9-24.4-14.5-45.2-15.8l-19-1.2 10.6-9.6c13-11.7 31.7-21 57.2-28.3l19-5.4 14.5 11.8c17 13.4 34 24.6 51.5 33.4l12 6.2-8.5 7c-11 8.7-44.4 32.5-46 32.5-.5 0-3-3.2-5.5-7zm246-32.7c-2-3.5 5-14.4 18.5-24.4 30-22.2 54-53.5 74.2-102.4l8.3-20 13-5c16.3-6 39.8-6.8 47.4-1.4 8.2 5.7 5.6 24.4-6.8 47.6-21 39.3-45.8 68-86.4 89.4-27.5 14.5-64.5 22.3-68.3 16zM203.8 675c-8-2-15.3-2.8-24-6.8-32.2-14.4-68.5-42-86.7-68.8-4.6-6.8-14.8-25-18.4-31.8L65 550c-5.2-9.5-5.2-23 0-27.7 3.7-3.4 7-4 18.5-2.8 26.8 2.5 28.8 3.8 38.6 24.3 17 35.7 42.8 66.7 67.5 87 8.3 7 16 19 22.7 29.2 11 16.7 12 20.7 5 18.7l-13.4-3.5zM95 127.6c-10.5-11.6-11.7-21.3-6-35.4 4.2-9.6 12.6-17.8 21.2-22.3 10-5.3 32.2-5 39.5 1.3.5.4-3 5-7.7 10.3-8 8.7-9.5 9.5-18 8.8-7.6-.6-10 .2-13 4.4-5 7.3-4.3 12.5 2.3 18.7 5.5 5 5.7 5.8 3 13.8-1.4 4.7-3 9.2-3.6 10.2-1.3 2.3-12-3.6-17.7-10zm366.6-8.6c-3.3-10.6-3.6-14.5-1.6-19 4.7-10.2-4-22.4-14.3-20-3 .8-6.4-1.5-11.4-7.6l-5.3-7.8 5.3-2.7c5-1 12.3-2.4 18.7-2.3 37 .3 53 48.4 22.4 68-4 2.6-7.7 4.7-8.5 4.7-.8 0-3.2-6-5.4-13.4z"/></svg>