<svg xmlns="http://www.w3.org/2000/svg" viewBox="0 0 1008 702" width="84pc" height="936"><defs><marker orient="auto" overflow="visible" id="a" viewBox="-1 -4 10 8" markerWidth="10" markerHeight="8" color="#ff8000"><path d="M8 0L0-3v6z" fill="none" stroke="currentColor"/></marker><marker orient="auto" overflow="visible" id="b" viewBox="-1 -4 10 8" markerWidth="10" markerHeight="8" color="#0f0"><path d="M8 0L0-3v6z" fill="currentColor" stroke="currentColor"/></marker><marker orient="auto" overflow="visible" id="c" viewBox="-1 -4 10 8" markerWidth="10" markerHeight="8" color="#6cf"><path d="M8 0L0-3v6z" fill="none" stroke="currentColor"/></marker></defs><g fill="none"><title>Goad</title><title>Layer 1</title><path fill="#000" d="M27 234h153v72H27z"/><path stroke="#fff" stroke-linecap="round" stroke-linejoin="round" d="M27 234h153v72H27z"/><text transform="translate(32 260.5)" fill="#999"><tspan font-family="Menlo" font-size="16" font-weight="500" x="42.602" y="15" textLength="9.633">$</tspan><tspan font-family="Menlo" font-size="16" font-weight="500" fill="#fff" x="52.234" y="15" textLength="48.164"> goad</tspan></text><path fill="#ff8000" d="M405 72h135v72H405z"/><path stroke="#fff" stroke-linecap="round" stroke-linejoin="round" d="M405 72h135v72H405z"/><text transform="translate(410 89.044)" fill="#fff"><tspan font-family="Helvetica Neue" font-size="16" font-weight="bold" x="37.836" y="16" textLength="10.96">A</tspan><tspan font-family="Helvetica Neue" font-size="16" font-weight="bold" x="48.412" y="16" textLength="38.752">WS λ</tspan><tspan font-family="Helvetica Neue" font-size="16" font-weight="500" fill="#fdb26d" x="28.268" y="34.464" textLength="68.464">us-east-1</tspan></text><path fill="#ff8000" d="M405 396h135v72H405z"/><path stroke="#fff" stroke-linecap="round" stroke-linejoin="round" d="M405 396h135v72H405z"/><text transform="translate(410 413.044)" fill="#fff"><tspan font-family="Helvetica Neue" font-size="16" font-weight="bold" x="37.836" y="16" textLength="10.96">A</tspan><tspan font-family="Helvetica Neue" font-size="16" font-weight="bold" x="48.412" y="16" textLength="38.752">WS λ</tspan><tspan font-family="Helvetica Neue" font-size="16" font-weight="500" fill="#fdb26d" x="9.004" y="34.464" textLength="106.992">ap-northeast-1</tspan></text><path fill="#ff8000" d="M405 180h135v72H405z"/><path stroke="#fff" stroke-linecap="round" stroke-linejoin="round" d="M405 180h135v72H405z"/><text transform="translate(410 197.044)" fill="#fff"><tspan font-family="Helvetica Neue" font-size="16" font-weight="bold" x="37.836" y="16" textLength="10.96">A</tspan><tspan font-family="Helvetica Neue" font-size="16" font-weight="bold" x="48.412" y="16" textLength="38.752">WS λ</tspan><tspan font-family="Helvetica Neue" font-size="16" font-weight="500" fill="#fdb26d" x="26.5" y="34.464" textLength="72">us-west-2</tspan></text><path fill="#ff8000" d="M405 288h135v72H405z"/><path stroke="#fff" stroke-linecap="round" stroke-linejoin="round" d="M405 288h135v72H405z"/><text transform="translate(410 305.044)" fill="#fff"><tspan font-family="Helvetica Neue" font-size="16" font-weight="bold" x="37.836" y="16" textLength="10.96">A</tspan><tspan font-family="Helvetica Neue" font-size="16" font-weight="bold" x="48.412" y="16" textLength="38.752">WS λ</tspan><tspan font-family="Helvetica Neue" font-size="16" font-weight="500" fill="#fdb26d" x="26.204" y="34.464" textLength="72.592">eu-west-1</tspan></text><path fill="#0080ff" d="M405 558h135v72H405z"/><path stroke="#fff" stroke-linecap="round" stroke-linejoin="round" d="M405 558h135v72H405z"/><text transform="translate(410 584.268)" fill="#fff"><tspan font-family="Helvetica Neue" font-size="16" font-weight="bold" x="25.636" y="16" textLength="10.96">A</tspan><tspan font-family="Helvetica Neue" font-size="16" font-weight="bold" x="36.212" y="16" textLength="63.152">WS SQS</tspan></text><path d="M292.5 243V108h102.6" marker-end="url(#a)" stroke="#ff8000" stroke-linecap="round" stroke-linejoin="round"/><path d="M292.5 270v-54h102.6M292.5 324h102.6M180 270h112.5v162h102.6" marker-end="url(#a)" stroke="#ff8000" stroke-linecap="round" stroke-linejoin="round"/><path fill="#e0ebf5" d="M774 234h162v72H774z"/><path stroke="#375eab" stroke-linecap="round" stroke-linejoin="round" d="M774 234h162v72H774z"/><text transform="translate(779 261.804)" fill="#375eab"><tspan font-family="Helvetica Neue" font-size="14" font-weight="500" x="17.732" y="13" textLength="104.23">https://golang.or</tspan><tspan font-family="Helvetica Neue" font-size="14" font-weight="500" x="121.57" y="13" textLength="12.698">g/</tspan></text><path d="M540 108h72v162h152.1" marker-end="url(#b)" stroke="#0f0" stroke-linecap="round" stroke-linejoin="round"/><path d="M540 216h72v54h152.1M540 324h72v-54h152.1" marker-end="url(#b)" stroke="#0f0" stroke-linecap="round" stroke-linejoin="round"/><path d="M540 432h72V270h152.1" marker-end="url(#b)" stroke="#0f0" stroke-linecap="round" stroke-linejoin="round"/><path d="M517.5 144v18H567v48.5c5.5 0 5.5 11 0 11v97c5.5 0 5.5 11 0 11v97c5.5 0 5.5 11 0 11V594h-17.1" marker-end="url(#c)" stroke="#6cf" stroke-linecap="round" stroke-linejoin="round"/><path d="M517.5 252v21.5H567v45c5.5 0 5.5 11 0 11v97c5.5 0 5.5 11 0 11V594h-17.1" marker-end="url(#c)" stroke="#6cf" stroke-linecap="round" stroke-linejoin="round"/><path d="M517.5 360v18H567v48.5c5.5 0 5.5 11 0 11V594h-17.1M405 594H103.5V306v11.9-2" marker-end="url(#c)" stroke="#6cf" stroke-linecap="round" stroke-linejoin="round"/><text transform="translate(623.5 253.832)" fill="#80ff00"><tspan font-family="Helvetica Neue" font-size="12" font-weight="500" x=".308" y="11" textLength="77.148">Up to 10,000 r</tspan><tspan font-family="Helvetica Neue" font-size="12" font-weight="500" x="77.24" y="11" textLength="52.452">equests/s</tspan></text><path d="M472.5 468v45H567v81h-17.1" marker-end="url(#c)" stroke="#6cf" stroke-linecap="round" stroke-linejoin="round"/><text transform="rotate(90 61.365 521.865)" fill="#6cf"><tspan font-family="Helvetica Neue" font-size="12" font-weight="500" x=".264" y="11" textLength="122.472">Results posted to SQS</tspan></text><text transform="translate(162 577.332)" fill="#6cf"><tspan font-family="Helvetica Neue" font-size="12" font-weight="500" x=".142" y="11" textLength="85.572">Goad pulls the r</tspan><tspan font-family="Helvetica Neue" font-size="12" font-weight="500" x="85.498" y="11" textLength="42.444">esults fr</tspan><tspan font-family="Helvetica Neue" font-size="12" font-weight="500" x="127.726" y="11" textLength="45.132">om SQS</tspan></text><text transform="translate(185 253.832)" fill="#ff8000"><tspan font-family="Helvetica Neue" font-size="12" font-weight="500" x=".214" y="11" textLength="97.572">Invoke λ functions</tspan></text></g></svg>