<svg xmlns="http://www.w3.org/2000/svg" width="612" height="792" viewBox="0 0 612 792"><path fill="#6BD6E6" d="M579 669c-2-5-6.3-8.5-11.7-10-1-1-2.2-1.5-3.4-1.8-7.7-9-25.3-19-37-20.7h-2.3c-7-6-16.2-8.7-25.2-9.2-4.5-2-9.3-2.6-14.2-1.6 2.4-1.8 4.2-4.2 5.2-7 7.2-5 14.2-11 16.2-19.8 9-12 21-27 24-41.8 6.8-10 19.2-37.5-2.4-39.3-15.4 1-29.5 1-44 7.7-1-.6-2-1-2.8-1.6 13-16.8 11.4-60.5 6.5-80.2 1.5-33-4.6-66.5-2.6-99.5 2-33.7 3.8-67.5 5.6-101 1.3-23 7-66.5-6-87 .2-6.7-.2-13.2-2.7-19.3 10.2 6.5 24-8 28-17.6 2-1.4 3-3.5 3.2-6 2.3-4.6 2-9.8-.7-14.2.2-2.5-.6-5-2.5-6.6 0-3.6-1.8-6.5-5-8.3-.3-4-2.4-6.8-6-8.2-9.2-11.6-43-18.8-51-3-2.4-3.4-6-5.5-10-5.8H437c-10.3-6.3-19.7-14-31.7-17-5-4-11-6.5-17.6-7.5h-1.5c-10-7.3-30-8.7-42-11.2-18.4-3.8-38.7-1.5-57-1.2-24.6.3-77.8 4.7-94 26.6-7.5 2.5-15 6-21.3 10.8-1-3.2-3.2-5.2-6.4-5.8-13.4-12.5-46.4 2-54.7 15.3-7.6 12-8.5 39 6.2 46 5.3 5.2 11.6 9.3 18.4 12.2-10 33-10.4 64-11 98.2-5.2 8.5-5 20.2-1.4 29.3-1.6 10.7-1.3 21.6-.6 32.4-6.4 12.5-4.3 37.3-3 49.8-3 48.6-2 99.7 4.5 148 1.3 8.4 1.5 16.6 5.2 24l.8 8.5c-3 .3-5.7 1-8.5 1.7-13.6-6.2-32.2-13.8-46.6-6.2-30.6-1.8-11.8 49 .8 59 5.6 13.6 14.4 26.8 24.3 37.7 1.2 3 3 5.8 5.4 8h-2.7c-20 1.5-60.5 4.3-69.2 26-16.5 1.2-10.2 21.3 4.8 12.5 17.3 7.2 35.7 8.5 52 20.4 4.4 4.4 10.3 7 16.6 8 4 5 9 8.5 15 11-.8 12.8 14.6 18.7 22.5 8.3 3-1.3 6-3 8.6-5 11.5-4.6 41.3-15.6 41-30 9.3.2 17.2 4.5 26.4 5.7-6.2 2.6-12 5.8-16.5 10.5-8 4.4-19.2 13.2-23.3 20.8-24.3 18.2 13 20 26.8 9 4.8-.3 9.5-1.7 13.7-4-1 3.6-2 7.2-2.7 11-6.4 6.3-6.2 17.4 3 21.5 7.6 3.4 15-4 22-6-3.2 8.3-3.2 25.4 9.7 19 8.2-.4 13.2-7 16-14.2 24.3-11 26.5-48 9-64.4-3.5-3.2-8-5.8-11.8-8.6 2.8-.3 5.5-.7 8.3-1.2 20.5 4.2 45.5-3.6 65.6-7.4-8.6 9.4-23.7 19.7-26.2 33-12 23 16 46.6 28.7 61l-.4-.3.4.3c10.6 9 24.4-.8 21-13.8 2.4.7 5 1 7.6.8 5 3.4 11.4 3.7 16-.6 4.7-4.3 5-10.8 1.7-16-1.5-2.7-3.5-4.4-6.2-6 .7-1.2 1.2-2.6 1.4-4 7 1.3 13.4 4.6 20.5 4.8 4 3 8.8 3.6 13.4 1.5 9 8.6 17.2-1.8 8.7-10.3-.7-.7-1.2-2-2-2.4-5.6-15.3-29-30.3-44.6-34-1.3 0-2.6 0-4 .4-3-2.3-6.8-4-10.7-4.5 1-1.3 1.7-2.6 2.3-4 4 6.5 11.5 8.2 18 4 6-.6 11.6-2 17-3.8 2.6 1 5.3 1 7.8.2 2.7 14.3 58.4 58 66.3 35.6.6-1.7.7-3.4.7-5.2 6.3-6.5 15.6-8.2 23.2-11.8 8-1 14.4-6.5 20-12.2 2.8-.4 5.3-1.8 7.2-3.8 6.4.4 12.7-1 18-4.7 4.5 3 9.5 3 14 .4 2.2.2 4.3.2 6.3 0 6.3 4 11.3 2.5 13-4.7zm-44.7-120.4zM511 116c0 .2-.2.2-.3.3l.3-.2zm-395.4 5.5zM64.8 553.2zm-.2-27.5l.3-.2-.4.2zm1-.6h.2-.2zM30 653.5zM181.4 732zm109.2-20v.2-.3zm99.5 25l.2.6-.2-1.3v.6zm-.2-1.3zM554 651h.2-.5.3zm-32-15.6h.2-.4zM450 80v-.2zm-288-1v.3-.2zm326.3 543.3v.2c0-.2 0-.3.2-.5l-.2.3zm31.8-52.7h-.8c.6 0 1 0 1.6-.2l-.7.2zm1.7-.4l-.7.2c.5 0 1-.2 1.3-.4l-.6.2zm1.5-.5h-.2s.3 0 .4-.2l-.2.2zm1.3-.7zm-6-38v-.2h-.2zm-44.7-429.3c3.7.6 6.8-1 8.7-4.2l.5.7c-1.6 4-2.3 8.4-2 12.8v-.5c-2.4 6.6-2.3 14 0 20.5-.7 2-.5 4.4.7 6.3l-1-1.2c-1-11.6-2.3-23.7-7.3-34.4h.4zm-210-67.5h.2-.2zm-.7.7l.4-.3-.3.2zM155 86.7c1.7-3.2 4-6 7-8.2-1.8 1.5-3.2 3.4-4 5.5-1.2 1-2.3 2-3.3 3.3l.3-.5zm-34 440.6h.3-.2zm-28.3 81v-.2zM103 623s-.2 0-.3-.2l.4.4zm8.2 73.6zM237.8 747v-.2zm.4-.7l-.2.2c.2 0 .3-.3.5-.5l-.3.3zm96.3-68.2zm49.7 51.3l.4.2-1-.4.6.3zm-1.2-.5zm6.6-53.5l.2-.2-.2.3zm1-3.8v-.2.2zm0-1.2v-.6.6zm23.3 13.3h-.2zm121-8.3h-.2.3zm1 0h-.5l1.2.2h-.6z"/><path fill="#F6D2A2" d="M301.3 169.6h7l.8.2H318.7l.4.2h2.2l.4.2h1l.4.2h1.1l.6.2h.5l.5.2h.5l.5.2h.5l.5.3h.5l.5.3h.5l.6.3h.5l.6.3.5.2.6.3.6.2.5.3.5.3.5.2.3.2.3.2h.2l.3.3.2.2h.3v.2h1.6l.6.3h.5l.7.3.5.2.5.2.5.2.5.3.5.3.5.3.4.4.6.3.4.4.4.5 1.8 1.6.4.5.4.4.4.4.3.4.4.5.4.4.3.5.2.5.2.5.2.5.2.5.2.6.2.5v.6l.2.4v.6l.2.5V190.2l.2.6.2.5v.6l.2.6v.5l.2.5v3.5l-.2.5v.5l-.2.5v.5l-.3.4-.2.6-.2.5v.5l-.3.4-.3.4-.2.4-.3.4-.4.4-.3.4-.3.4-.4.4-.3.4-.4.4-.5.3-.5.3-.4.3-.4.3h-.4l-.5.4-.4.2-.5.2-.5.2-.4.2h-.4l-.4.3h-.5l-.5.2h-.4l-.5.2H334l-.3-.2h-.5l-.6-.2h-.5l-.4-.2-.5-.2h-.4l-.5-.3-.4-.2-.5-.2-.4-.2h-.5l-.4-.3-.5-.2-.4-.2-.5-.2-.4-.3h-.5l-.2-.3h-.3l-.2-.3-.3-.2h-.3l-.3-.3v-.2h-.9l-.4-.2h-.4l-.4-.2-.4-.2H316l-1.2-.2h-3.4l-.3-.2H307.3l-1.2-.3H305l-.5.2h-.5l-.4.2h-1.2l-.4.2H300.5l-.5.2H297.3l-.2.2-.3.2-.4.3-.3.3-.4.2-.4.2-.3.2h-.3l-.3.2-.3.2-.3.2-.2.2h-.4l-.3.3-.2.2-.3.2h-.3l-.3.3h-.4l-.4.2h-.3l-.4.2h-.3l-.3.2h-.4l-.3.2h-.3l-.3.3h-1l-.3.2h-.4l-.3.2h-.4l-.3.2h-.7l-.4.2h-.8l-.3.2h-1.5l-.4.2h-3.3l-.4-.2-3.4-.5h-.5l-.5-.3h-.6l-.5-.3-.5-.3-.6-.2-.5-.2-.4-.3-.4-.3-.5-.3-.5-.3-.4-.2-.4-.4-.5-.3-.5-.3-.3-.4-.4-.5-.4-.4-.3-.4-.2-.5-.3-.5-.3-.5-.2-.5-.2-.5-.3-.5v-.5l-.3-.6v-.6l-.3-.5-.2-.7V193l.2-.7v-.5l.3-.6.2-.5.2-.5.2-.5v-.5l.4-.5.3-.5.3-.5.3-.4.3-.5.4-.4.4-.4.4-.4.2-.2.4-.4.3-.2v-.2l.2-.5v-.4l.2-.3v-.3l.3-.3v-.3l.2-.3v-.2l.3-.3.2-.3v-.4l.3-.3.2-.3.2-.4v-.4l.4-.3.2-.3.3-.4.2-.4.3-.6.4-.4.3-.4.4-.5.5-.3.5-.5.5-.4.7-.5.5-.4.7-.5.5-.3.4-.2.5-.2.4-.2h.4l.4-.3.6-.2h.6l.6-.3h.6l.6-.3h.6l.6-.3h1.2l.6-.2h.6l.6-.2h.5l.6-.2h.7l.6-.2h1l.6-.2h1.8l.5-.2H297l.6-.2h3.7zm6.2 32zm6.8-2.6l.4.3-.7-.7-.2-.3.5.7zm3.8-.5zm-5-1.5v.3l-.3-.5.2.2zm24.8-20.2l.2.2.3.3.2.2.2.2.3.2.2.2.2.2.2.3.2.2.2.2.3.2.2.3.2.3.2.2v.3l.2.3.2.2.3.3.4.2.4.3.4.3.5.5.4.3.3.3.2.3.3.2.2.2.4.4.7.5.3.3.3.3.3.5.3.3.3.4.2.3v-.8l-.3-.5-.2-.6-.2-.7-.3-.7-.4-.7-.3-.7-.5-.8-.5-.6-.6-.6-.5-.6-.6-.5-.8-.5-.6-.4-.7-.3-.7-.3-.5-.2-.6-.2h-.5l-.5-.2H337.6h.2zm8 8.3zm-4.6 0v-.2zm-5.5-2l.3.4-.3-.4v-.2zm-.4-.7z"/><path fill="#FFF" d="M302 202h1.1l.6.2.5.2h.5l.5.3.4.2.3.2h.2l.3.4.3.2.5.5.5.5.3.5.3.6.3.3.2.5v.4l.2.2.3-.7.3-.8.5-.8.4-.6.6-.6.7-.5.6-.4 1-.2.6-.2.8-.2H316.8l.8.4.7.3.7.5.7.5.5.6.5.6.5.7.2.5h1.7l.4.2h.6l.3.2h.5l.3.2h.2l.3.2.3.2h.4l.2.3h.8l.4.2h.7l.3.2h.7l.3.2h.4l.5.2h.2l.2.2h.3l.3.2.2.2h.2l.3.2.3.2.2.2h.3l.3.3.3.3h.2l.4.6.3.3.3.4.4.5.3.6v.4l.3.4v.4l.2.4v.8l.2.4v2.4l-.2.2v1.3l-.2.5v.4l-.2.3V222.8l-.2.2V225l-.2.3v.7l-.2.3v.3l-.2.3v.3l-.2.2v.2l-.2.2v.3h-.2v.3l-.3.3-.3.3-.2.4V232.8l-.2.4v.5l-.2.5v.5l-.2.3v.3l-.3.4-.2.3-.2.4v.4l-.3.2-.2.3-.2.2-.2.3-.2.3-.2.2-.3.3-.2.3-.2.2-.3.3-.3.4-.3.2h-.3v.3h-.5l-.2.3h-.2l-.2.2h-.2l-.2.2-.2.2h-.4l-.3.2h-.2l-.2.2h-.2l-.3.2h-.3l-.3.2h-.6l-.3.2H320.5l-.4-.2-.4-.2h-.4l-.4-.3h-.4v-.2H317l-.6-.2-.6-.2-.7-.3-.6-.4-.6-.6-.5-.4-.4-.5-.4-.5-.2-.3-.2-.2-.4-.2-.4-.3-.4-.3-.3-.3-.3-.3-.3-.2v-.3l-.3-.3-.2-.3v-.3l-.3-.3v.2l-.2.3v.4l-.3.3v.2l-.2.2-.2.3-.2.3v.4l-.4.3-.3.3-.3.3-.4.5-.4.3-.5.2-.4.3h-.2v.2l-.5.2h-.3l-.2.4-.2.3-.2.2-.3.3-.2.3-.2.4h-.3l-.2.3-.2.2h-.2l-.3.3-.4.2-.3.2h-.4l-.3.2H299l-.4.2H294.8l-.2-.2h-.5l-.4-.2h-.7l-.3-.2h-.2l-.3-.2h-.3l-.3-.2h-.4l-.4-.3-.3-.2-.6-.3v-.2l-.6-.4-.2-.3-.5-.5-.5-.7-.3-.6-.3-.4-.2-.5v-.3l-.2-.3-.2-.3-.2-.3v-.2l-.2-.3v-.2l-.2-.2v-.4l-.3-.3v-.7l-.2-.3v-.7l-.2-.3v-.6l-.2-.3v-1.6l-.2-.2v-5.8l.2-1v-2.8l.2-.8V217l.2-.5v-2.8l.2-.7.2-.8.3-.7.3-.6.5-.7.5-.6.6-.5.6-.4.6-.4 6-2.8v-.2l.3-.4.2-.3.4-.4.4-.4.2-.4.5-.3.7-.4.3-.3.5-.2.4-.2h.4l.5-.2h1.6zm16.6 39h.2-.2zm-28.8-1v-.2zm22.5-2.5zm-4.7-26.5v-.4.4zm-.3-5.7zm69-136.2h.3l.4.2h.9V69h.8l.2-.2h1l.2-.2h1.9l.5-.2h4.3l.3.2h1.5l.3.2H389.6l.6.2h.7l.4.2h.6l.6.2h.6l.5.3h.6l.5.2h.5l.6.2 1 .2.8.3.5-.3.6-.2h.5l.6-.3h2.9l.5.3h.3l.3.2v.2h.4l.3.3h.3l.2.2.3.2.4.2.3.2h.3l.4.3.3.2.3.2.4.2.3.2h.3l.3.3.3.3.3.2.3.2h.2l.3.3.3.2.3.2.4.2.5.3.5.3.6.4.6.4.6.5.6.4.5.3.6.4 1 .8 1 .8 1.2.8.6.5.5.4.5.3.6.3.5.4.4.3.5.4.4.3.4.3h.2l.3.3h.2l.2.3h.2l.3.2h.2l.2.2.2.2h.3v.2h.3l.7.5.5.4.6.5.5.6.3.5.3.6.3.5v.7l.2.2v.9l.2.2v.5l.2.6v.5l.3.5v.6l.2.5.2.4.2.7.2.3.2.2.2.3v.2l.3.2.2.3v.2l.3.2v.2l.3.2v.3l.3.2.2.4v.2l.2.2v.3l.2.3v.2l.2.2v.3l.2.2v.4l.3.5v.9l.2.3v.4l.2.3v.4l.2.3v.4l.2.7.2.6v.6l.2.3v.4l.3.3.4.3.4.5.2.2.3.4v.3l.3.3.2.4.2.3.2.3v.7l.2.2v.2l.2.2v.3l.2.4v.7l.2.3v1.1l.2.3v6.1l.2.3V125l-.2.4v.7l-.2.5v.4l-.2.2v.3l-.2.3v.5l-.2.2v.5l-.2.3v.4l-.2.4v.5l-.2.4v.3l-.2.5v.4l-.3 1v1l-.2.4v.5l-.2.6v.5l-.3.6v.6l-.2.5v.5l-.2.3v.3l-.2.3V139.7l-.2.3-.2.2v.3l-.2.3v.3l-.2.3v.3l-.3.3v.2l-.2.3-.2.3v.5l-.4.3-.2.4-.2.3-.2.3-.3.2-.2.3v.3h-.3l-.2.3-.2.3h-.3l-.2.3-.2.3v.7l-.3.4v.4l-.3.4v.4l-.3.3v.4l-.2.4v.3l-.3.4v.3l-.3.3v.4h-.2v.3l-.3.2-.2.3v.2l-.2.5-.2.5v.4l-.2.3-.2.3v.4l-.3.2-.2.3v.2l-.2.2-.3.2-.3.4-.2.2-.3.3-.2.3-.2.2h-.2v.3h-.3l-.3.4-.3.3v.2l-.3.3-.2.2-.2.2-.2.2-.3.3h-.2l-.2.3-.3.3h-.2l-.2.3h-.4l-.2.3h-.2l-.2.2h-.2l-.2.2-.4.3-.4.2-.3.2h-.3l-.4.3-.4.2h-.4l-.4.2h-.4l-.3.3h-.4l-.2.2-.4.2h-.3l-.2.4-.5.6-.5.6-.7.5-.5.6-.7.3-.8.2h-.8l-.8.2h-.6l-.2.2h-1.2l-.2.2H406.8l-.3.2h-.5l-.3.2h-.3l-.3.2h-.7l-.2.2h-.2l-.3.2h-.3l-.3.2h-.3l-.3.2h-.3l-.2.2h-.2l-.3.2h-.3l-.2.2h-.3l-.3.2-.2.2h-.3l-.3.2h-.3l-.3.3h-.3l-.4.2H397l-.2.2h-.7l-.5.2h-1.2l-.3.2h-.6l-.2.2H392.3l-.2.2H385l-.4-.2h-4.2l-.4-.2h-1.6l-.3-.2h-.8l-.3-.2h-.6l-.4-.2h-.7l-.3-.2h-.3l-.4-.2h-.7l-.3-.2h-.3l-.3-.2h-.3l-.4-.2h-.3l-.3-.2h-.3l-.2-.3h-.3l-.3-.2h-.3l-.4-.2h-.3l-.3-.2h-.3l-.3-.2-.6-.3-.6-.2-.5-.2-.6-.2-.4-.3-.6-.3-.5-.2-.6-.3-1.2-.6-.2-.2h-.4v-.2h-.4l-.3-.2h-.5l-.2-.2h-.6l-.7-.3-.6-.3h-.5l-.4-.2h-.3l-.4-.2h-.4l-.5-.3h-.5l-.2-.2h-.2l-.2-.2h-.3v-.2h-.3l-.3-.2h-.2l-.3-.2h-.3l-.2-.2-.3-.2h-.2l-.3-.2-.2-.2h-.3l-.2-.3-.3-.2-.2-.2-.3-.2-.3-.2-.4-.2-.2-.2-.2-.2-.3-.2h-.3l-.4-.5-.5-.4-.7-.6-.3-.3-.3-.3-.3-.2-.2-.2v-.2h-.3v-.2h-.3v-.2h-.3l-.2-.2h-.2l-.2-.2-.3-.2-.3-.3h-.2l-.2-.3-.3-.3-.3-.4-.3-.2-.2-.3-.3-.2-.3-.3-.3-.2-.2-.3-.2-.3-.2-.3-.3-.3h-.2l-.2-.4v-.3l-.3-.3-.2-.3-.2-.3-.2-.2v-.3l-.3-.4v-.2l-.3-.3-.2-.2v-.2l-.3-.3-.2-.2-.2-.2-.4-.3v-.2l-.4-.2h-.2l-.3-.4v-.2l-.3-.2v-.2l-.3-.2-.2-.3-.2-.2-.2-.3v-.5l-.2-.2-.2-.2-.2-.5v-.4l-.3-.2V143l-.2-.3v-.8l-.2-.4v-.8l-.2-.3v-.4l-.3-.5v-.8l-.3-.4v-.3l-.3-.8-.2-.7-.3-.7-.3-.6v-.3l-.2-.4v-.3l-.2-.3v-.2l-.2-.3v-.4h-.2v-.4h-.2l-.4-.5-.4-.5-.4-.5-.2-.6-.2-.3-.2-.5v-.5l-.2-.5v-12.3l.2-.4v-1.6l.2-.4v-1.1l.2-.3v-.7l.2-.2v-.5l.2-.3v-.5l.2-.2v-.3l.2-.2v-.3l.3-.2v-.3h.2V107l.2-.2v-1.1l.2-.5V103l.2-.3v-1.1l.2-.3v-.8l.2-.3v-.8l.2-.3v-.4l.3-.4v-.2l.2-.3.2-.5.2-.4.3-.4v-.3l.4-.4.2-.4.3-.3V95l.4-.2.2-.2.2-.2h.2V94l.2-.2.3-.6.3-.6.3-.6.4-.6.3-.6.3-.6.3-.5.4-.7.3-.6.3-.6.4-.4.3-.6.3-.6.2-.3.2-.2.3-.4.4-.4.4-.5.4-.4.4-.2.5-.3.6-.2.4-.3h.2v-.2h.2l.2-.4.2-.4.4-.7.2-.5.3-.4v-.2l.3-.3v-.3l.3-.3.2-.2.2-.3.2-.4.2-.3.2-.3.3-.2.2-.2.2-.3.4-.2.5-.2.3-.2.6-.2.2-.3h.2l.3-.2.3-.2h.3l.2-.2h.2l.2-.2.2-.2h.3l.2-.2h.4l.4-.2h.3l1-.4.8-.2 1-.2.8-.3 1-.2.8-.3 1-.3 1-.2.8-.3.8-.3 1-.3.8-.3 1-.3.8-.2 1-.3.8-.3h.5l.3-.2h.7l.2-.2h.7l.3-.2h.8l.5-.2h1.6l.6-.2h2zm34.2 98.3h-.4.7-.2zM247 62.3h2.4l.3.2h.2l.4.2h.5v.2H251.7l.7.4.7.3.6.3.7.2.7.3.7.3.7.2.7.3.8.3.7.2.7.3.8.3.7.3.7.2.8.3.7.3.7.3.7.2 1.5.5 1.4.5 1.5.5 1.4.5 1.6.5 1.5.5.7.2 1 .3.2.2h.4l.4.3.3.2h.2l.3.3.2.2h.2l.2.2.2.2h.3l.3.4.2.2h.2l.4.5.2.2.2.2.4.3.4.3.3.3.4.3.2.3.3.2.3.3.3.3.4.3.3.4.3.2.3.3.3.2.5.6.6.5.5.5.3.2.3.3.2.2.2.2.2.2h.2l.2.3.2.2.2.2h.2l.2.3.3.3h.2l.4.7.4.5.2.2.2.4.3.7.2.4v.5l.2.3V86.7l.2.2v1h.2l.2.3.3.3v.2h.2v.3l.3.3.2.3.2.2v.4l.3.2.2.3v.3l.3.3.2.4v.3l.3.3v.3l.3.3v.3l.2.2.2.3v.3l.3.5.2.5.2.5.2.4v.4l.2.5.2.4v.2h.2v.4l.3.4v.5l.2.5v.4l.2.4V101.8l.3.5v.4l.2.3v.5l.2.3v.4l.2.3v.5h.2l.2.4.3.3.3.3.2.4.2.2.3.6.2.6.2.3v.5l.2.4V112.5l.2.4V117.5l-.2.4V119l-.2.4v.5l-.2.2v.3l-.2.4-.2.2-.2.5-.3.5-.2.3-.3.5-.5.6-.2.2h-.2V128l-.2.3v.7l-.2.4v.3l-.3.4v.7l-.2.2v.2l-.2.2v.2l-.3.3-.2.2v.2l-.2.3-.2.3v.3l-.2.2v1.1l-.2.3-.2.4v.4l-.3.4-.2.5-.2.4-.2.3-.2.3-.2.3h-.2v.3l-.3.2v.2l-.3.2v.4l-.2.4v.6l-.2.3v.3l-.2.4v.6l-.2.3v.4l-.2.3-.2.4-.2.3v.2h-.2v.4l-.3.2v.2l-.3.2v.3l-.3.2-.2.3-.2.2-.3.3-.3.3-.3.2-.3.2-.2.2-.3.2h-.3l-.2.2h-.2l-.2.3h-.2l-.3.2-.4.6v.3l-.3.4-.3.3v.2h-.2l-.2.3v.2l-.3.2-.2.2-.2.2-.2.2v.2l-.4.3h-.3l-.3.4-.4.3-.4.2h-.2l-.3.2h-.2v.2h-.2l-.5.5-.6.3-.7.4h-.2l-.5.3h-.3l-.3.2-.2.2h-.2l-.2.3h-.2l-.2.3-.3.2h-.2v.2l-.2.2-.2.3-.3.3-.3.4-.2.2-.5.3-.7.5-.6.4h-.3l-.4.2h-.2v.2h-.4l-.2.2h-.3l-.2.2h-.2l-.3.2-.4.2h-.4l-.4.3-.4.2-.8.4-.4.2-.5.2-.3.3-.5.3h-.2l-.3.2h-.2l-.3.2h-.2l-.3.2H263.8l-.3.2H262l-.2.2H259.6v-.2h-.4l-.2.2h-.7v.2h-1l-.2.2H255l-.2.2H253.7v.2h-.7l-.4.2H248.5l-.3.2-.4.2h-.3l-.3.2h-.5l-.3.2h-.7l-.3.2H244.3l-.2.2h-2l-.4.2H232.4l-.4-.2h-1.2l-.2-.2H230l-.2-.2h-.5l-.2-.2h-.2l-.3-.2-.3-.2h-.3l-.4-.3-.3-.2h-.4l-.3-.3-.4-.3-.5-.4-.4-.4-.3-.4-.2-.4H221.5l-.3.2H219.6l-.3-.2h-.4l-.5-.2h-.2l-.5-.3-.7-.3h-.2l-.3-.3-.2-.2h-.2v-.2h-.2l-.2-.2h-.4l-.4-.2-.3-.2h-.3l-.3-.2h-.3l-.3-.3h-.3l-.7-.3-.8-.3-.7-.3h-.5l-.4-.2-.4-.2-.5-.2-.4-.2-.5-.2-.4-.2h-.3v-.2h-.3l-.3-.2-.2-.2h-.2l-.3-.2-.2-.2h-.3l-.2-.3h-.2l-.2-.2h-.2l-.2-.3h-.2l-.2-.2-.2-.2-.3-.2-.2-.2-.2-.3-.3-.3-.3-.3-.3-.3-.3-.2-.3-.2-.2-.3-.2-.3-.2-.2-.2-.2-.2-.3-.4-.4-.3-.5-.3-.4-.3-.3v-.3h-.3v-.3h-.2l-.2-.3h-.2v-.2l-.2-.2-.3-.2h-.3l-.3-.3-.5-.3-.2-.2-.2-.2-.3-.3-.3-.3-.2-.2-.3-.2-.3-.3-.3-.3-.3-.3-.2-.3v-.2l-.2-.2-.2-.2v-.2l-.2-.2-.2-.3v-.2l-.2-.2v-.3l-.2-.2-.2-.6v-.4l-.3-.5v-.5l-.5-1v-.2l-.5-.2-.3-.3-.5-.5-.2-.2-.3-.4-.2-.3v-.2l-.3-.3-.2-.3v-.4l-.3-.3v-.3l-.2-.3v-.4l-.2-.3v-.9l-.3-.3-.3-.4-.4-.5-.3-.4-.2-.4-.2-.3v-.2l-.3-.2-.2-.3v-.3l-.3-.3-.2-.4-.2-.3-.2-.3v-.4l-.2-.4-.2-.3v-.3l-.2-.2v-.4h-.2v-.4l-.2-.3v-.3l-.2-.3v-.3l-.2-.3v-.3l-.2-.3v-.5l-.2-.3v-.6l-.2-.5v-1l-.2-.3V120.4l-.2-.3V118l-.2-.6V106l.2-.3v-.8l.2-.4v-.5l.2-.3v-.3l.2-.3v-.3l.2-.3v-.2l.2-.3v-.2l.2-.3v-.2l.2-.3v-.2l.2-.3v-.2l.2-.3v-.2l.2-.2.3-.4v-.4l.3-.4.2-.4.2-.4.3-.4.4-.7.4-.7.2-.4v-.4l.3-.3.2-.3v-.3l.2-.2V92l.2-.2v-1l.2-.3V90l.2-.3v-.2l.2-.2V89l.2-.4.2-.2v-.2l.2-.3v-.3l.3-.2.2-.3V87l.7-.7.5-.7.4-.7.6-.8.5-.7.5-.7 1-1.3 1-1.3.6-.7.6-.6.5-.7.5-.7.4-.6.6-.8.3-.4.4-.3.2-.4h.3l.3-.4.3-.2h.4l.2-.3h.4l.2-.2.2-.3.2-.3.2-.2.2-.2.2-.2.2-.2h.2l.2-.3h.2l.2-.3.3-.3.2-.2h.2v-.3l.3-.2.2-.2h.3l.2-.3h.2l.2-.3h.2l.2-.3h.2l.2-.2.2-.2h.3l.2-.3.3-.2h.2l.3-.3h.2l.2-.2h.2l.3-.2h.2v-.2h.3l.3-.2h.2l.2-.2h.3l.2-.2h.3l.2-.2h.3l.2-.2h.5l.3-.2h.2l.3-.2h.7l.3-.2H217l.7-.4.7-.3.8-.2.7-.3.7-.2h.4l.4-.3h.4l.4-.2h.4l.4-.2h.3l.4-.2h.4l.5-.2h.4l.3-.2h.4l.4-.2h.5l.4-.2h.7l.4-.2h.5l.4-.2h.7l.5-.2h.8l.4-.2H233l.6-.2H241.5l.5.2h4.6zM419.3 142l-.4.2-.4.3-.4.3-.4.3-.2.2h-.2l-.2.3h-.3l-.3.2-.2.2h-.5l-.2.2-.3.2h-.2l-.3.2h-.2l-.3.2-.2.2h-.3l-.3.2h-.2l-2 .8-1 .3-1 .4-1 .3-.5.2-.3.2-.7.4-.7.4-.7.2h2.3l.4-.2h1l.5-.2H411.4l.3-.2h.7l.2-.2h1l.2-.2h.3l.2-.2h.7v-.2h.4l.8-.6.4-.2.2-.2.5-.4.6-.4h.2v-.3l.2-.4v-.2l.2-.2.2-.3v-.3l.2-.3v-.2l.2-.3v-.3l.2-.3v-.2l.2-.2v-.2l-.2.2zm-4 5h-.2zm-144.5-24h-.8l-.5.2H269l-.3.2-.4.2-.4.2h-.4l-.2.2h-.3v.3l-.3.3-.3.2-.2.2-.2.3v.2l-.3.2-.2.2-.2.2-.2.2v.2l-.2.3h-.2v.4l-.3.2-.2.3v.3l.2.6.4.6.2.7.2.8V135l.3.3v.4l.2.2v.3l.3.2v.4l.2.3v.3l.2.4v.5l.2.3v.7h1.6l.6.2.6.2.5.2h.3l.6.5.5.2.5.3.4.5.3.4.4.5h.3l.2-.3.3-.2h.2v-.3l.4-.4.3-.2.2-.3.2-.3v-.2l.2-.2.2-.3.3-.3.2-.3.3-.4.3-.3.3-.2h.2l.3-.4h.4l.2-.3.3-.2h.3v-.2h.2v-.8l.2-.4v-.8l.2-.2v-.8l.3-.5.2-.4v-.5l.3-.3.2-.3.2-.4.2-.2.2-.3-.5.2-.6.2h-2.9l-.6-.3-1-.2-.5-.4-.6-.3-.6-.4-.4-.4-.3-.4-.4-.6-.3-.6v-.2l-.3-.5v-.4l-.2-.4v-.4l-.2-.4V123h-.4zm23.8 4.4zm.2-25.4l-.4-.3h-.2l.6.3zm134.4-8.8zM274 88.8v.3-.2zm131.3-17.5z"/><path fill="#222" d="M242.7 768.6c-2.5-1.4-3.7-5-3.7-11 0-9.5-1-10.2-7.7-5.3-12.5 9.5-22.7-.4-18.3-17.7 1.6-6.3 1.5-6.4-5.7-4.8-20 4.5-25.8 5.2-31.6 4-5.6-1-6.2-2-5-7.5 2-11 12-24 24.7-32.4 11.5-7.7 14-12 6.6-12-1.8 0-8 3.3-13.8 7.5-14.4 10.3-56.8 34.8-60.3 34.8-1.7 0-3-2-3-4.7s-4.3-9-9.7-14.5c-9-9-10.7-9.7-21-9.7-10 0-11-.5-10-4.2 2.8-11.3-23.8-23-53.6-23.4-9.5 0-17.3-1-17.3-1.7 0-3 14.7-16.2 25.7-23.2 11.3-7 22.7-11.6 46.3-18l12.6-3.4-11.4-15c-11.4-15-25.6-42.7-30.8-60-4.8-16.2 1.4-27 17.7-30.6 5-1 32 3 44.6 6.6 5.2 1.5 5.3 1.3 3.7-8-.8-5.2-1.8-12.6-2-16.5-.4-4-3.4-49.7-3.8-66.4-.8-28.7-.2-40.2.5-79.7.4-26 1.3-49 2.4-90 1.6-68.7 5-88.3 11.7-119.5 1.2-6 0-5.2-7.5-9.2-20-10.7-26.5-38.8-13.8-59.2 11.8-19 36.3-25 57-15.7l8.7 4 12.6-8.4c27.8-18.7 74-29.7 126-27.4 49 2.2 87.6 14 117.5 33 14.2 9 14.8 8.5 21.3 5 8.7-4.3 28.5-4 37.3.5 10 5.4 21.4 18 24.3 26.8 1.3 4.2 3.6 12.8 3 19-1 10.2-2.6 13.6-12 22-5.8 5.4-13.3 8.6-15 8.6-2.2 0-3 1.4-2.2 4 6.6 21.8 9.4 70.7 4.2 131.3-3.7 43.2-5.3 78.3-.5 140.5 2.7 34.2 3.6 79.2-.3 92.7-1.2 4-1 7-.7 7.4.3.3 4.5-.3 12.8-2.2 25.5-5.8 39.5.2 39.5 17 0 11.8-23 57.4-38 74.8-6 7.3-10.4 14-9.5 15 1 .8 8.2 3 16.2 5 30 7.7 64.6 29 73.2 45 2.2 4 1.2 4.3-19.3 4.4-11.8 0-25.6 1.3-30.7 2.8-11.2 3.3-21.5 12.3-19.6 17 1.2 3 0 3.4-8.3 2.3C494 697 481 704.3 474 717l-5 9.3-19.6-13.5c-10.7-7.4-25-18.4-32-24.5-11.4-9.6-13.4-10.6-18.5-8.7-3.3 1.2-6 3-5.8 4 0 1 5 4.7 11.4 8.4 13 7.6 25.7 22 28.7 32.2 1.8 6.4 1.4 7.3-4 9.3-5.3 2-13.4 1-33.7-4-5.2-1.3-5.3-1-3.8 8.8 2.3 15.6-5 21-19 14-6.5-3.5-6.5-3.5-6.5 3 0 3.6-1.8 8.7-4 11.3-3.7 4.7-4 4.8-12.6 1.2-13-5.5-33.2-26.8-37.7-40-7.2-21.2-4-33 12.4-46.7 10.4-8.7 9.3-9.4-9.4-5.8-6.5 1.2-16 2.4-21.4 2.6-8.7.3-20 4-12.8 4 4.7 0 14 19 14 28.2 0 25.4-37 67-52 58.6zm19.7-12.5c12-9 24.8-28 27-40 2-11-.7-18.7-9.8-26.7l-18-15.8c-8.2-7.2-7.4-10.8-8.4-19.6-1-8.5-.5-13 4.2-22.4 6.5-13.2 29.4-41.3 34.3-41.3 5.8 0 1.4 5-12 19.4-20.4 21.8-26 36.8-20.5 50 4.3 10.4 6.7 14.6 26 14.5 17.8 0 56.5-8.7 59.2-13 2.5-4 3.5-11.5.4-21.7-1.7-5.8-7.4-17.7-18.3-29.3-13.2-14-18.4-16.2-16.2-18.3 2.2-2.2 5.8.4 16.8 12.4 17.2 18.5 26 34.8 26 48.3 0 10.3 0 10.3-30 37.6-7.3 6.7-8 8.5-8 19 0 12.2 5.6 27.4 12 32.6.7.6 5.5 6.8 11 11.3 7.4 6.2 16.4 11.2 19 11.2 3.2 0 3.4-9.5.4-20-3-11 1-14.4 7-6 5.2 6.8 16.5 13.5 19.8 11.5 3.6-2.2 2.5-13-2.3-22.3-2.5-4.8-3.7-9.6-2.7-10.6s6.6 1 12.3 4c10.6 6 37.3 10.5 37.2 6.4 0-3.5-8-15.2-15.4-22.3-9.2-9-28.6-18.3-41.4-20-6.4-1-10.2-2.6-10.2-4.5 0-1.7 1-2.6 2.2-3 4.5-2 9.3-7.4 14-14.5 20-29.3 27-57.7 22.4-71.8-1.5-4.5-4-8-7-9.4-5.8-2.6-9-7-4-7 5.8 0 14.8 9 17.3 17.5 2.4 8.2 1 21.4-3.7 35-2.6 7 27-19.3 41.6-38.7 13.8-18.2 31.7-49 40.6-74.7 5.4-15.7 3-16.2-1.5-162.7-1-31 1.6-55.5 4-85.6 4.5-52 2.8-73-1.4-101-6-40.2-15.4-63.8-38.2-86.5-49.3-49.5-177-62-247.4-25-26.7 14-46.5 31.3-56.5 60.4C131.4 151 126.4 180 123.7 277c-5 182-.3 206 4.4 232.6 9.6 55 41.5 107.2 73 132l13.7 10.8-9-18.3c-4.2-9-6.4-17.2-7-29-1-18 1.7-17.6 8.4-24.3 7-6.8 8.3-7.8 10.7-4 .7 1.3-1 3.5-3.8 5-8 4.2-11.4 9.3-11.5 20.3 0 18.7 18 57 33 70.8 8.3 7.8 7.2 10.6-4.8 12.4-13.3 2-29.4 10-41 20.6-8 7.2-15.5 17.8-15.5 22 0 3.8 27-.7 37.7-6.2 6.2-3.3 11.8-5 12.5-4 .7 1.2-.8 6.2-3.4 11.3-5.3 10.4-5 20.6.6 21.7 2 .4 8.3-3.4 13.7-8.5 11-10 14-9 10.5 4-5.7 20.5-1 23.3 16.6 10zm28-512.5c-5-2.5-6.8-4.4-7.4-17.5-.6-14.2.3-14.7-5-13.7-6.4 1.2-19-10-19-17 0-5.4 9.4-16.8 18-22 3.5-2 6.8-6.2 7.5-9.6 3.2-16.2 43.3-15.3 47.4 1 .6 3 3 6 5.4 7 7.3 2.2 15.5 14 15.5 22.3 0 8-6.4 16.6-12 16.6-2.2 0-2.2 3.8-3 12.3-1.4 18.4-12.8 26.3-24.2 18-3.8-2.7-5-2.6-9.7 1-6.3 5-6.4 5-13.6 1.5zm14.4-6c3.2-3.5 3.8-7 3-17.8-.5-7.4-1.6-14-2.4-15-1-.8-4.8 2-9.5 3.7-8.4 3-9 1.5-9.7 14.2-.4 7.6 2.4 14.3 4 16 3.7 4.6 10 4 14.5-1zm24.6 0c2.2-2.4 3.2-9 3.8-14.5 1-9.8 2.2-10.2-5-13.2-19-7.7-18-8.2-16.8 9.8.8 12 2 16.8 5 19 5.6 4.3 8.3 4 13-1zM291 205c10.5-4.3 19.6-5.8 32.7-1.3 13 4.4 21 2.3 24-5.4 2.6-7 .5-11-5.7-17.8-5.3-5.7-8.5-6.8-14.6-2.2-6.7 5-27.6 4.3-36.7-1.3-8-5-8.4-5-21 6.6-7 6.3-8 14.6-2.4 20.7 4.4 5 13 5.2 23.8.7zm81.4-32.4c-21.3-5.4-39.6-21.2-44.2-38.4-5.5-20.4 2.7-46.7 18-57.5 35.3-25.3 89-5.8 96.8 35 2 11.2-2.3 31-9.4 40.7-12.4 17.2-39.6 25.6-61.2 20.2zm40-7.5c25.5-12 32-41.6 18.8-68-15.4-31-58.7-35-83.4-15.6-5.2 4-8 7.5-11.2 14-6.7 12.8-7.3 33.2-1.7 44 13.7 26.3 49 38.8 77.3 25.7zm-16-15.7c-11.4-11.3-4-30.3 11.8-30.3 4.8 0 8.3 1.8 11.5 6 5.5 7 6 12 1.4 20.7-5.4 10.6-16 12.2-24.6 3.6zm7-7c2-4.8-2.7-9.4-6-6-3 3-1.2 9.5 2.4 9.5 1.3 0 3-1.5 3.7-3.5zm-177.8 24c-29.5-9.8-47-31.2-44.2-58.3 2-19.4 14.8-36.2 32-45.2 12.4-6.5 40-5 54.6 1.6 20.8 9.4 34.7 31.3 34.6 52.2 0 17-13 38-30 46.7-9.6 5-37.2 6.2-47 3zm44-7.3c17.6-7.4 28.4-24.8 28.2-43.6-.3-30-25.4-52.2-59.2-52.2-27.5 0-45 14-51 41.5-9.2 41 39.3 72 82 54.3zm-14-14.2c-6-6-7-14.2-3-22 3.6-6.6 6.4-8.2 14.5-8.2 8.3 0 13.8 5.3 15.8 15 1.2 6 .3 8.3-5.4 14-8.2 8-14.5 8.5-21.8 1.2zm7.2-7c2-4.8-3-9.3-6.2-6-3 3-1 9.6 2.5 9.6 1.4 0 3-1.6 3.8-3.5zm-87 553.8c6.5-4 11.8-8.2 11.8-9.2s-6.2-4.2-13.8-7.2c-15.2-6-55.7-32-64.2-41-6.7-7.3-13.3-7.5-34.5-1.2-18.3 5.4-39 15.8-46 23l-4.6 5.2 17.5 1.5c20.7 1.8 38 9 45.2 19 3 3.8 8 7.3 12 8 10.8 2.3 22.6 11 26.8 20l4 8.2 17-9.5c9.5-5.2 22.4-12.7 29-17zm296.6 19c6.3-10 14.5-15.4 25.5-17 5.8-.7 11.6-3.3 15-6.6 9-9 24.4-14.5 45-15.8l19.2-1.2-10.7-9.6c-13-11.7-31.7-21-57.2-28.3l-18.8-5.4-14.6 11.8c-17 13.4-34 24.6-51.5 33.4l-12.2 6.2 8.6 7c10.8 8.7 44.3 32.5 45.8 32.5.6 0 3-3.2 5.6-7zm-246-32.7c2-3.5-5-14.4-18.5-24.4-30-22.2-54-53.5-74.3-102.4l-8.2-20-13-5c-16.4-6-39.8-6.8-47.5-1.4-8.3 5.7-5.7 24.4 6.7 47.6 21 39.3 45.8 68 86.4 89.4 27.6 14.5 64.6 22.3 68.4 16zM395 675c8-2 15.4-2.8 24.3-6.8 32-14.4 68.3-42 86.5-68.8 4.7-6.8 15-25 18.5-31.8L534 550c5-9.5 5.2-23 0-27.7-3.8-3.4-7-4-18.6-2.8-26.8 2.5-28.8 3.8-38.6 24.3-17 35.7-42.6 66.7-67.4 87-8.3 7-16 19-22.7 29.2-11 16.7-12 20.7-5 18.7l13.4-3.5zm109-547.6c10.5-11.6 11.7-21.3 5.8-35.4-4-9.6-12.5-17.8-21-22.3-10-5.3-32.2-5-39.6 1.3-.5.4 3 5 7.8 10.3 8 8.7 9.4 9.5 18 8.8 7.5-.6 9.8.2 12.8 4.4 5 7.3 4.5 12.5-2.2 18.7-5.4 5-5.6 5.8-3 13.8 1.4 4.7 3 9.2 3.6 10.2 1.4 2.3 12-3.6 17.8-10zM137.4 119c3.2-10.6 3.5-14.5 1.5-19C134 90 143 77.7 153 80c3 .8 6.4-1.5 11.5-7.6l5.2-7.8-5.3-2.7c-5-1-12.4-2.4-18.7-2.3-37 .3-53.2 48.4-22.5 68 4 2.6 7.8 4.7 8.5 4.7.7 0 3-6 5.4-13.4z"/></svg>